# xmcd
#
# Track frame offsets: 
#        150
#        14648
#        30231
#        42926
#        59411
#        76660
#        91757
#        107641
#        127910
#        140632
#        155396
#        167999
#        181862
#        194873
#        218433
#        233047
#
# Disc length: 3444 seconds
#
# Revision: 0
# Processed by: cddbd v1.5.2PL0 Copyright (c) Steve Scherf et al.
# Submitted via: ExactAudioCopy v0.99pb5
#
DISCID=cb0d7210
DTITLE=Jesse Winchester - Talk Memphis
DYEAR=1900
DGENRE=Country
TTITLE0=Say what
TTITLE1=Baby blue
TTITLE2=Leslie
TTITLE3=Hoot and holler
TTITLE4=If only
TTITLE5=Sure enough
TTITLE6=I love you no end
TTITLE7=Let go
TTITLE8=Reckon on me
TTITLE9=Talk Memphis
TTITLE10=It don't do a thing to me
TTITLE11=She's all I'll ever need
TTITLE12=You don't even know (how pretty you are)
TTITLE13=Payday (live)
TTITLE14=Rhumba man (live)
TTITLE15=Yankee lady (live)
EXTD=
EXTT0=
EXTT1=
EXTT2=
EXTT3=
EXTT4=
EXTT5=
EXTT6=
EXTT7=
EXTT8=
EXTT9=
EXTT10=
EXTT11=
EXTT12=
EXTT13=
EXTT14=
EXTT15=
PLAYORDER=
